<svg width="749" height="200" viewBox="0 0 749 200" fill="none" xmlns="http://www.w3.org/2000/svg">
<g clip-path="url(#clip0_2341_4250)">
<path fill-rule="evenodd" clip-rule="evenodd" d="M607.03 64.0577C608.288 63.7537 609.5 64.7077 609.5 66.0017V156C609.5 157.106 608.604 158 607.5 158H586.5C585.396 158 584.5 157.106 584.5 156V71.0697C584.5 70.1457 585.132 69.3437 586.03 69.1257L607.03 64.0577ZM746.037 12.0539C747.295 11.7559 748.501 12.7099 748.501 14.0019V156C748.501 157.104 747.605 158 746.501 158H732.919C732.335 158 731.781 157.746 731.401 157.304L726.649 151.768C718.873 156.964 709.535 160 699.501 160C670.671 160 647.579 134.976 650.801 105.51C653.217 83.4279 670.685 65.4599 692.695 62.4639C703.943 60.9339 714.581 63.2699 723.501 68.3039V18.9899C723.501 18.0639 724.135 17.2579 725.037 17.0459L746.037 12.0539ZM723.301 114.132C725.295 98.4559 712.053 85.2099 696.377 87.1999C685.689 88.5559 677.059 97.1839 675.699 107.87C673.705 123.546 686.947 136.792 702.625 134.802C713.311 133.446 721.941 124.818 723.301 114.132ZM633.5 62.0001C641.508 62.0001 648 68.4921 648 76.5001C648 84.5081 641.508 91.0001 633.5 91.0001C625.492 91.0001 619 84.5081 619 76.5001C619 68.4921 625.492 62.0001 633.5 62.0001ZM368.5 64.0001C369.604 64.0001 370.5 64.8961 370.5 66.0001V156C370.5 157.106 369.604 158 368.5 158H347.5C346.396 158 345.5 157.106 345.5 156V66.0001C345.5 64.8961 346.396 64.0001 347.5 64.0001H368.5ZM358 12.0001C366.008 12.0001 372.5 18.4921 372.5 26.5001C372.5 34.5081 366.008 41.0001 358 41.0001C349.992 41.0001 343.5 34.5081 343.5 26.5001C343.5 18.4921 349.992 12.0001 358 12.0001ZM466 64.0001C467.104 64.0001 468 64.8961 468 66.0001V85.1261C468 85.6821 467.766 86.2161 467.356 86.5941L416 134H460.438C461.356 134 462.156 134.626 462.378 135.516L467.378 155.516C467.694 156.778 466.74 158 465.438 158H456.56H384C382.896 158 382 157.106 382 156V136.876C382 136.318 382.234 135.786 382.644 135.406L432 88.0001H389.562C388.644 88.0001 387.844 87.3761 387.622 86.4861L382.622 66.4861C382.306 65.2241 383.26 64.0001 384.562 64.0001H396.56H466ZM570.03 64.0581C571.29 63.7541 572.5 64.7081 572.5 66.0021V156C572.5 157.106 571.604 158 570.5 158H556.928C556.34 158 555.78 157.742 555.4 157.292L550.704 151.732C542.916 156.95 533.558 160 523.5 160C496.48 160 474.5 138.018 474.5 111C474.5 83.9821 496.48 62.0001 523.5 62.0001C532.82 62.0001 541.542 64.6181 548.966 69.1541C548.99 69.1481 549.008 69.1321 549.03 69.1261L570.03 64.0581ZM523.5 135C536.734 135 547.5 124.234 547.5 111C547.5 97.7661 536.734 87.0001 523.5 87.0001C510.266 87.0001 499.5 97.7661 499.5 111C499.5 124.234 510.266 135 523.5 135ZM331.5 64.0001C332.604 64.0001 333.5 64.8961 333.5 66.0001V109C333.5 137.122 310.396 160 282 160C253.604 160 230.5 137.122 230.5 109V66.0001C230.5 64.8961 231.396 64.0001 232.5 64.0001H253.5C254.604 64.0001 255.5 64.8961 255.5 66.0001V109C255.5 123.336 267.388 135 282 135C296.612 135 308.5 123.336 308.5 109V66.0001C308.5 64.8961 309.396 64.0001 310.5 64.0001H331.5Z" fill="#030303"/>
<path fill-rule="evenodd" clip-rule="evenodd" d="M120.5 200H80.5C36.318 200 0.5 164.182 0.5 120V80C0.5 35.818 36.318 0 80.5 0H120.5C164.682 0 200.5 35.818 200.5 80V120C200.5 164.182 164.682 200 120.5 200Z" fill="#FFC600"/>
<path fill-rule="evenodd" clip-rule="evenodd" d="M135.228 68.274C136.066 68.088 136.894 68 137.7 68C145.21 68 150.928 75.664 147.462 83.596C146.5 85.802 144.704 87.598 142.496 88.562C133.712 92.4 125.258 84.976 127.176 76.328C128.056 72.358 131.26 69.154 135.228 68.274ZM54.5 69.598H70.5C71.604 69.598 72.5 70.496 72.5 71.598V101.04C72.5 115.906 84.88 128 100.1 128C114.684 128 126.664 116.892 127.636 102.882C127.71 101.832 128.628 101.04 129.68 101.04H145.646C146.772 101.04 147.704 101.97 147.656 103.094C146.562 128.038 125.648 148 100.1 148C73.854 148 52.5 126.932 52.5 101.04V71.598C52.5 70.496 53.394 69.598 54.5 69.598Z" fill="white"/>
</g>
<defs>
<clipPath id="clip0_2341_4250">
<rect width="749" height="200" fill="white"/>
</clipPath>
</defs>
</svg>
