<?xml version="1.0" encoding="UTF-8" standalone="no"?>
<!-- Created with Inkscape (http://www.inkscape.org/) -->

<svg
   version="1.1"
   id="svg2"
   width="2000"
   height="401.34134"
   viewBox="0 0 2000 401.34134"
   xmlns="http://www.w3.org/2000/svg"
   xmlns:svg="http://www.w3.org/2000/svg">
  <defs
     id="defs6">
    <clipPath
       clipPathUnits="userSpaceOnUse"
       id="clipPath20">
      <path
         d="M 0,301.006 H 1500 V 0 H 0 Z"
         id="path18" />
    </clipPath>
  </defs>
  <g
     id="g8"
     transform="matrix(1.3333333,0,0,-1.3333333,0,401.34133)">
    <g
       id="g10"
       transform="translate(858.9678,113.2901)">
      <path
         d="M 0,0 H 23.859 L 12.108,72.645 H 11.395 L -0.356,0 Z m -11.395,-71.577 h -44.869 l 43.088,194.789 H 39.528 L 82.26,-71.577 H 36.679 l -6.41,37.391 H -4.985 l -6.054,-37.391 z"
         style="fill:#e00b1c;fill-opacity:1;fill-rule:nonzero;stroke:none"
         id="path12" />
    </g>
    <g
       id="g14">
      <g
         id="g16"
         clip-path="url(#clipPath20)">
        <g
           id="g22"
           transform="translate(997.8483,150.681)">
          <path
             d="m 0,0 h 11.039 c 9.971,0 12.82,6.41 12.82,23.859 0,19.586 -3.561,23.503 -13.176,23.503 H 0.356 V -0.356 Z m 7.478,-34.898 h -7.834 v -74.426 H -45.937 V 85.465 h 58.401 c 38.815,0 55.196,-22.079 55.196,-58.401 0,-24.927 -7.478,-42.02 -21.723,-49.855 l 28.845,-86.533 h -46.65 l -21.01,74.426 z"
             style="fill:#e00b1c;fill-opacity:1;fill-rule:nonzero;stroke:none"
             id="path24" />
        </g>
        <g
           id="g26"
           transform="translate(162.7849,209.082)">
          <path
             d="m 0,0 -35.61,-11.395 c -2.137,17.093 -7.479,23.503 -16.737,23.503 -11.752,0 -16.381,-8.191 -16.381,-26.352 v -92.587 c 0,-15.313 4.273,-23.503 16.025,-23.503 9.258,0 14.244,6.41 17.093,24.571 l 35.966,-10.683 c -5.698,-37.391 -24.215,-54.128 -56.976,-54.128 -36.679,0 -59.114,24.215 -59.114,63.387 V -14.6 c 0,43.088 23.503,68.372 59.47,68.372 C -25.996,53.772 -4.629,31.693 0,0"
             style="fill:#221f20;fill-opacity:1;fill-rule:nonzero;stroke:none"
             id="path28" />
        </g>
        <g
           id="g30"
           transform="translate(222.2542,236.502)">
          <path
             d="M 0,0 V -74.782 H 27.42 V 0 H 72.645 V -194.789 H 27.42 v 79.768 H 0 v -79.768 h -45.581 l 0,194.789 z"
             style="fill:#221f20;fill-opacity:1;fill-rule:nonzero;stroke:none"
             id="path32" />
        </g>
        <g
           id="g34"
           transform="translate(414.1942,236.502)">
          <path
             d="M 0,0 V -39.528 H -51.635 V -77.275 H -14.6 v -34.898 h -37.035 v -43.8 H 1.424 v -38.816 h -98.64 l 0,194.789 z"
             style="fill:#221f20;fill-opacity:1;fill-rule:nonzero;stroke:none"
             id="path36" />
        </g>
        <g
           id="g38"
           transform="translate(536.3378,190.9208)">
          <path
             d="m 0,0 -33.83,-11.039 c -2.137,14.244 -7.122,19.942 -14.6,19.942 -7.478,0 -14.956,-7.835 -14.956,-22.791 v -79.767 c 0,-13.176 4.273,-21.01 14.6,-21.01 8.19,0 12.82,4.985 14.956,21.366 L 0,-104.338 c -5.342,-32.762 -22.791,-48.43 -53.416,-48.43 -33.829,0 -55.196,22.434 -55.196,58.044 v 80.48 c 0,38.815 22.435,62.318 55.909,62.318 28.488,0 48.074,-19.942 52.703,-48.43 z"
             style="fill:#221f20;fill-opacity:1;fill-rule:nonzero;stroke:none"
             id="path40" />
        </g>
        <g
           id="g42"
           transform="translate(629.2809,41.7133)">
          <path
             d="M 0,0 -27.776,75.138 -35.61,59.469 V 0 h -44.157 v 194.789 h 44.157 v -82.972 l 31.337,82.972 H 44.869 L 0.356,109.324 47.718,-0.356 H -0.356 Z"
             style="fill:#221f20;fill-opacity:1;fill-rule:nonzero;stroke:none"
             id="path44" />
        </g>
        <g
           id="g46"
           transform="translate(799.4984,209.082)">
          <path
             d="m 0,0 -35.61,-11.395 c -2.137,17.093 -7.479,23.503 -16.737,23.503 -11.752,0 -16.381,-8.191 -16.381,-26.352 v -92.587 c 0,-15.313 4.273,-23.503 16.025,-23.503 9.258,0 14.244,6.41 17.093,24.571 l 35.966,-10.683 c -5.698,-37.391 -24.215,-54.128 -56.976,-54.128 -36.679,0 -59.114,24.215 -59.114,63.387 V -14.6 c 0,43.088 23.503,68.372 59.47,68.372 C -20.298,53.772 -4.629,31.693 0,0"
             style="fill:#e00b1c;fill-opacity:1;fill-rule:nonzero;stroke:none"
             id="path48" />
        </g>
        <g
           id="g50"
           transform="translate(1188.3638,193.4135)">
          <path
             d="m 0,0 -32.762,-11.751 c -3.205,15.668 -9.614,20.654 -18.517,20.654 -8.903,0 -12.464,-3.918 -12.464,-13.176 0,-28.845 64.455,-36.679 64.455,-94.368 0,-35.966 -21.366,-56.264 -55.196,-56.264 -27.42,0 -51.279,17.805 -55.908,49.142 l 34.898,9.615 c 3.561,-17.093 11.039,-22.435 19.942,-22.435 7.834,0 13.176,3.918 13.176,12.82 0,35.967 -65.88,42.02 -65.88,98.285 0,29.2 19.586,53.059 52.348,53.059 32.049,0 48.074,-17.805 55.908,-45.937 z"
             style="fill:#e00b1c;fill-opacity:1;fill-rule:nonzero;stroke:none"
             id="path52" />
        </g>
        <g
           id="g54"
           transform="translate(1322.6115,203.7766)">
          <path
             d="m 0,0 c 0,-67.304 -55.193,-78.023 -65.52,-122.892 h 64.455 v -39.171 h -112.173 l -1.068,19.941 c 2.849,69.797 69.796,100.778 69.796,141.73 0,13.176 -4.629,18.517 -14.6,18.517 -9.615,0 -17.805,-8.19 -21.01,-30.269 l -34.542,10.683 c 6.41,35.611 25.64,60.538 59.469,60.538 38.816,0 55.197,-25.995 55.197,-57.689 z"
             style="fill:#221f20;fill-opacity:1;fill-rule:nonzero;stroke:none"
             id="path56" />
        </g>
        <g
           id="g58"
           transform="translate(1397.3966,117.5634)">
          <path
             d="M 0,0 2.493,85.109 H 1.781 L -31.337,0 Z m -0.356,-75.85 v 38.815 H -73.713 V -6.41 L -4.629,142.441 H 39.528 V 0 H 55.552 L 52.703,-37.391 H 39.884 V -76.206 H 0 Z"
             style="fill:#221f20;fill-opacity:1;fill-rule:nonzero;stroke:none"
             id="path60" />
        </g>
      </g>
    </g>
  </g>
</svg>
