<svg width="271" height="21" viewBox="0 0 271 21" fill="none" xmlns="http://www.w3.org/2000/svg">
<path d="M7.395 14.085V15.9H0V5.25H7.26V7.065H2.07V9.63H6.555V11.31H2.07V14.085H7.395Z" fill="black"/>
<path d="M10.1038 8.04L11.7538 10.5L11.8738 10.77L12.0238 10.5L13.6588 8.04H15.7738L13.0438 11.955L15.8188 15.9H13.7038L12.0088 13.455L11.8738 13.2L11.7538 13.455L10.0738 15.9H7.95879L10.7338 12L8.00379 8.04H10.1038Z" fill="black"/>
<path d="M20.0763 16.05C19.4363 16.05 18.8613 15.945 18.3513 15.735C17.8413 15.515 17.4063 15.215 17.0463 14.835C16.6863 14.445 16.4063 14.005 16.2063 13.515C16.0163 13.025 15.9213 12.51 15.9213 11.97C15.9213 11.23 16.0863 10.555 16.4163 9.945C16.7563 9.325 17.2363 8.83 17.8563 8.46C18.4763 8.09 19.2113 7.905 20.0613 7.905C20.9113 7.905 21.6413 8.09 22.2513 8.46C22.8613 8.83 23.3163 9.315 23.6163 9.915L21.6513 10.515C21.4813 10.225 21.2563 10.005 20.9763 9.855C20.6963 9.695 20.3863 9.615 20.0463 9.615C19.6663 9.615 19.3163 9.715 18.9963 9.915C18.6863 10.105 18.4413 10.38 18.2613 10.74C18.0813 11.09 17.9913 11.5 17.9913 11.97C17.9913 12.43 18.0813 12.84 18.2613 13.2C18.4513 13.55 18.7013 13.83 19.0113 14.04C19.3213 14.24 19.6663 14.34 20.0463 14.34C20.2863 14.34 20.5113 14.3 20.7213 14.22C20.9413 14.14 21.1363 14.03 21.3063 13.89C21.4763 13.75 21.6013 13.59 21.6813 13.41L23.6463 14.01C23.4663 14.4 23.2013 14.75 22.8513 15.06C22.5113 15.37 22.1063 15.615 21.6363 15.795C21.1763 15.965 20.6563 16.05 20.0763 16.05Z" fill="black"/>
<path d="M28.4549 16.05C27.8249 16.05 27.2549 15.945 26.7449 15.735C26.2349 15.515 25.7999 15.22 25.4399 14.85C25.0799 14.47 24.7999 14.04 24.5999 13.56C24.4099 13.07 24.3149 12.555 24.3149 12.015C24.3149 11.265 24.4799 10.58 24.8099 9.96C25.1499 9.34 25.6299 8.845 26.2499 8.475C26.8799 8.095 27.6199 7.905 28.4699 7.905C29.3299 7.905 30.0649 8.095 30.6749 8.475C31.2849 8.845 31.7499 9.34 32.0699 9.96C32.3999 10.57 32.5649 11.23 32.5649 11.94C32.5649 12.06 32.5599 12.185 32.5499 12.315C32.5399 12.435 32.5299 12.535 32.5199 12.615H26.4449C26.4849 13.015 26.5999 13.365 26.7899 13.665C26.9899 13.965 27.2399 14.195 27.5399 14.355C27.8499 14.505 28.1799 14.58 28.5299 14.58C28.9299 14.58 29.3049 14.485 29.6549 14.295C30.0149 14.095 30.2599 13.835 30.3899 13.515L32.1149 13.995C31.9249 14.395 31.6499 14.75 31.2899 15.06C30.9399 15.37 30.5249 15.615 30.0449 15.795C29.5649 15.965 29.0349 16.05 28.4549 16.05ZM26.3999 11.34H30.5099C30.4699 10.94 30.3549 10.595 30.1649 10.305C29.9849 10.005 29.7449 9.775 29.4449 9.615C29.1449 9.445 28.8099 9.36 28.4399 9.36C28.0799 9.36 27.7499 9.445 27.4499 9.615C27.1599 9.775 26.9199 10.005 26.7299 10.305C26.5499 10.595 26.4399 10.94 26.3999 11.34Z" fill="black"/>
<path d="M33.8194 4.95H35.8294V15.9C35.8294 15.9 35.7594 15.9 35.6194 15.9C35.4894 15.9 35.3144 15.9 35.0944 15.9C34.8844 15.9 34.6644 15.9 34.4344 15.9C34.2144 15.9 34.0094 15.9 33.8194 15.9V4.95Z" fill="black"/>
<path d="M37.7305 4.95H39.7405V15.9C39.7405 15.9 39.6705 15.9 39.5305 15.9C39.4005 15.9 39.2255 15.9 39.0055 15.9C38.7955 15.9 38.5755 15.9 38.3455 15.9C38.1255 15.9 37.9205 15.9 37.7305 15.9V4.95Z" fill="black"/>
<path d="M45.2566 16.05C44.6266 16.05 44.0566 15.945 43.5466 15.735C43.0366 15.515 42.6016 15.22 42.2416 14.85C41.8816 14.47 41.6016 14.04 41.4016 13.56C41.2116 13.07 41.1166 12.555 41.1166 12.015C41.1166 11.265 41.2816 10.58 41.6116 9.96C41.9516 9.34 42.4316 8.845 43.0516 8.475C43.6816 8.095 44.4216 7.905 45.2716 7.905C46.1316 7.905 46.8666 8.095 47.4766 8.475C48.0866 8.845 48.5516 9.34 48.8716 9.96C49.2016 10.57 49.3666 11.23 49.3666 11.94C49.3666 12.06 49.3616 12.185 49.3516 12.315C49.3416 12.435 49.3316 12.535 49.3216 12.615H43.2466C43.2866 13.015 43.4016 13.365 43.5916 13.665C43.7916 13.965 44.0416 14.195 44.3416 14.355C44.6516 14.505 44.9816 14.58 45.3316 14.58C45.7316 14.58 46.1066 14.485 46.4566 14.295C46.8166 14.095 47.0616 13.835 47.1916 13.515L48.9166 13.995C48.7266 14.395 48.4516 14.75 48.0916 15.06C47.7416 15.37 47.3266 15.615 46.8466 15.795C46.3666 15.965 45.8366 16.05 45.2566 16.05ZM43.2016 11.34H47.3116C47.2716 10.94 47.1566 10.595 46.9666 10.305C46.7866 10.005 46.5466 9.775 46.2466 9.615C45.9466 9.445 45.6116 9.36 45.2416 9.36C44.8816 9.36 44.5516 9.445 44.2516 9.615C43.9616 9.775 43.7216 10.005 43.5316 10.305C43.3516 10.595 43.2416 10.94 43.2016 11.34Z" fill="black"/>
<path d="M57.8961 15.9H55.8861V11.49C55.8861 10.86 55.7761 10.4 55.5561 10.11C55.3361 9.82 55.0311 9.675 54.6411 9.675C54.3711 9.675 54.0961 9.745 53.8161 9.885C53.5461 10.025 53.3011 10.22 53.0811 10.47C52.8611 10.71 52.7011 10.99 52.6011 11.31V15.9H50.5911V8.04H52.4061V9.495C52.6061 9.155 52.8611 8.87 53.1711 8.64C53.4811 8.4 53.8361 8.22 54.2361 8.1C54.6461 7.97 55.0761 7.905 55.5261 7.905C56.0161 7.905 56.4161 7.995 56.7261 8.175C57.0461 8.345 57.2861 8.58 57.4461 8.88C57.6161 9.17 57.7311 9.5 57.7911 9.87C57.8611 10.24 57.8961 10.615 57.8961 10.995V15.9Z" fill="black"/>
<path d="M60.2449 15.9V9.855H59.0749V8.04H60.2449V5.49H62.3149V8.04H64.1299V9.855H62.3149V15.9H60.2449Z" fill="black"/>
<g clip-path="url(#clip0_699_4345)">
<path d="M93.8799 1.08824H75.1299V19.9118H93.8799V1.08824Z" fill="#00B67A"/>
<path d="M114.192 1.08824H95.4424V19.9118H114.192V1.08824Z" fill="#00B67A"/>
<path d="M134.505 1.08824H115.755V19.9118H134.505V1.08824Z" fill="#00B67A"/>
<path d="M154.817 1.08824H136.067V19.9118H154.817V1.08824Z" fill="#00B67A"/>
<path d="M175.13 1.08824H165.755V19.9118H175.13V1.08824Z" fill="white"/>
<path d="M165.755 1.08824H156.38V19.9118H165.755V1.08824Z" fill="#00B67A"/>
<path d="M84.5049 13.7738L87.3565 13.0483L88.5479 16.7346L84.5049 13.7738ZM91.0674 9.00912H86.0479L84.5049 4.26402L82.9619 9.00912H77.9424L82.0049 11.9503L80.4619 16.6954L84.5244 13.7542L87.0244 11.9503L91.0674 9.00912Z" fill="white"/>
<path d="M104.817 13.7738L107.669 13.0483L108.86 16.7346L104.817 13.7738ZM111.38 9.00912H106.36L104.817 4.26402L103.274 9.00912H98.2549L102.317 11.9503L100.774 16.6954L104.837 13.7542L107.337 11.9503L111.38 9.00912Z" fill="white"/>
<path d="M125.13 13.7738L127.981 13.0483L129.173 16.7346L125.13 13.7738ZM131.692 9.00912H126.673L125.13 4.26402L123.587 9.00912H118.567L122.63 11.9503L121.087 16.6954L125.149 13.7542L127.649 11.9503L131.692 9.00912Z" fill="white"/>
<path d="M145.442 13.7738L148.294 13.0483L149.485 16.7346L145.442 13.7738ZM152.005 9.00912H146.985L145.442 4.26402L143.899 9.00912H138.88L142.942 11.9503L141.399 16.6954L145.462 13.7542L147.962 11.9503L152.005 9.00912Z" fill="white"/>
<path d="M165.755 13.7738L168.606 13.0483L169.798 16.7346L165.755 13.7738ZM172.317 9.00912H167.298L165.755 4.26402L164.212 9.00912H159.192L163.255 11.9503L161.712 16.6954L165.774 13.7542L168.274 11.9503L172.317 9.00912Z" fill="white"/>
</g>
<g clip-path="url(#clip1_699_4345)">
<path d="M208.205 7.44336H216.71V9.05874H213.366V18.1396H211.527V9.05874H208.197V7.44336H208.205ZM216.347 10.3948H217.919V11.8894H217.948C218 11.6781 218.097 11.4743 218.238 11.278C218.378 11.0817 218.549 10.893 218.749 10.7345C218.949 10.5684 219.172 10.4401 219.417 10.3344C219.661 10.2363 219.913 10.1835 220.166 10.1835C220.358 10.1835 220.499 10.191 220.573 10.1986C220.648 10.2061 220.722 10.2212 220.803 10.2288V11.8743C220.685 11.8517 220.566 11.8366 220.44 11.8215C220.314 11.8064 220.195 11.7989 220.077 11.7989C219.795 11.7989 219.528 11.8592 219.276 11.9725C219.024 12.0857 218.809 12.2593 218.623 12.4782C218.438 12.7047 218.289 12.9764 218.178 13.3086C218.067 13.6407 218.015 14.0181 218.015 14.4484V18.1321H216.339V10.3948H216.347ZM228.508 18.1396H226.861V17.0602H226.832C226.624 17.4527 226.32 17.7622 225.912 17.9962C225.504 18.2302 225.089 18.351 224.667 18.351C223.666 18.351 222.939 18.1019 222.494 17.5961C222.049 17.0904 221.827 16.328 221.827 15.3089V10.3948H223.502V15.1429C223.502 15.8222 223.628 16.3053 223.888 16.5846C224.14 16.8639 224.503 17.0073 224.963 17.0073C225.319 17.0073 225.608 16.9545 225.846 16.8413C226.083 16.728 226.276 16.5846 226.417 16.3959C226.565 16.2147 226.669 15.9883 226.735 15.7316C226.802 15.475 226.832 15.1957 226.832 14.8938V10.4024H228.508V18.1396ZM231.363 15.6562C231.414 16.1544 231.6 16.5016 231.919 16.7054C232.245 16.9017 232.631 17.0073 233.083 17.0073C233.239 17.0073 233.417 16.9922 233.617 16.9696C233.817 16.947 234.01 16.8941 234.18 16.8262C234.358 16.7582 234.499 16.6526 234.618 16.5167C234.729 16.3808 234.781 16.2072 234.774 15.9883C234.766 15.7694 234.685 15.5882 234.536 15.4523C234.388 15.3089 234.203 15.2032 233.973 15.1127C233.743 15.0296 233.483 14.9541 233.187 14.8938C232.89 14.8334 232.593 14.7654 232.289 14.6975C231.978 14.6296 231.674 14.539 231.385 14.4408C231.096 14.3427 230.836 14.2068 230.606 14.0332C230.376 13.8672 230.191 13.6482 230.057 13.384C229.917 13.1199 229.85 12.7953 229.85 12.4027C229.85 11.98 229.954 11.6328 230.154 11.3459C230.354 11.0591 230.614 10.8326 230.918 10.659C231.229 10.4854 231.57 10.3646 231.948 10.2892C232.327 10.2212 232.69 10.1835 233.031 10.1835C233.424 10.1835 233.802 10.2288 234.158 10.3118C234.514 10.3948 234.84 10.5307 235.129 10.727C235.419 10.9157 235.656 11.1648 235.849 11.4667C236.042 11.7687 236.16 12.1385 236.212 12.5688H234.462C234.381 12.1612 234.203 11.8819 233.913 11.746C233.624 11.6026 233.291 11.5347 232.92 11.5347C232.801 11.5347 232.66 11.5422 232.497 11.5649C232.334 11.5875 232.186 11.6252 232.037 11.6781C231.896 11.7309 231.778 11.814 231.674 11.9196C231.578 12.0253 231.526 12.1612 231.526 12.3348C231.526 12.5462 231.6 12.7122 231.741 12.8406C231.882 12.9689 232.067 13.0746 232.297 13.1651C232.527 13.2482 232.786 13.3237 233.083 13.384C233.379 13.4444 233.684 13.5124 233.995 13.5803C234.299 13.6482 234.596 13.7388 234.892 13.837C235.189 13.9351 235.448 14.071 235.678 14.2446C235.908 14.4182 236.093 14.6296 236.234 14.8862C236.375 15.1429 236.449 15.4674 236.449 15.8449C236.449 16.3053 236.346 16.6903 236.138 17.0149C235.93 17.3319 235.663 17.5961 235.337 17.7924C235.011 17.9887 234.64 18.1396 234.24 18.2302C233.839 18.3208 233.439 18.3661 233.046 18.3661C232.564 18.3661 232.119 18.3132 231.711 18.2C231.303 18.0868 230.947 17.9207 230.651 17.7018C230.354 17.4753 230.117 17.1961 229.946 16.8639C229.776 16.5318 229.687 16.1317 229.672 15.6713H231.363V15.6562ZM236.894 10.3948H238.162V8.06989H239.838V10.3948H241.351V11.6705H239.838V15.8071C239.838 15.9883 239.846 16.1393 239.86 16.2751C239.875 16.4035 239.912 16.5167 239.964 16.6073C240.016 16.6979 240.098 16.7658 240.209 16.8111C240.32 16.8564 240.461 16.879 240.654 16.879C240.773 16.879 240.891 16.879 241.01 16.8715C241.128 16.8639 241.247 16.8488 241.366 16.8186V18.1396C241.18 18.1623 240.995 18.1774 240.824 18.2C240.646 18.2227 240.468 18.2302 240.283 18.2302C239.838 18.2302 239.482 18.1849 239.215 18.1019C238.948 18.0188 238.733 17.8905 238.585 17.7245C238.429 17.5584 238.333 17.3546 238.274 17.1055C238.222 16.8564 238.185 16.5695 238.177 16.2525V11.6856H236.909V10.3948H236.894ZM242.537 10.3948H244.124V11.4441H244.154C244.391 10.9912 244.717 10.6741 245.14 10.4779C245.563 10.2816 246.015 10.1835 246.512 10.1835C247.113 10.1835 247.632 10.2892 248.077 10.5081C248.521 10.7194 248.892 11.0138 249.189 11.3912C249.485 11.7687 249.7 12.2065 249.849 12.7047C249.997 13.2029 250.071 13.7388 250.071 14.305C250.071 14.8258 250.004 15.3316 249.871 15.8147C249.738 16.3053 249.537 16.7356 249.27 17.113C249.003 17.4904 248.662 17.7848 248.247 18.0113C247.832 18.2378 247.35 18.351 246.786 18.351C246.542 18.351 246.297 18.3283 246.052 18.283C245.807 18.2378 245.57 18.1623 245.348 18.0641C245.125 17.966 244.91 17.8377 244.725 17.6792C244.532 17.5206 244.376 17.3395 244.243 17.1357H244.213V21.0005H242.537V10.3948ZM248.395 14.2748C248.395 13.9275 248.351 13.5879 248.262 13.2557C248.173 12.9236 248.039 12.6367 247.861 12.3801C247.684 12.1234 247.461 11.9196 247.202 11.7687C246.935 11.6177 246.631 11.5347 246.289 11.5347C245.585 11.5347 245.051 11.7838 244.695 12.282C244.339 12.7802 244.161 13.4444 244.161 14.2748C244.161 14.6673 244.206 15.0296 244.302 15.3618C244.399 15.6939 244.532 15.9807 244.725 16.2223C244.91 16.4638 245.133 16.6526 245.392 16.7884C245.652 16.9319 245.956 16.9998 246.297 16.9998C246.682 16.9998 247.001 16.9168 247.268 16.7582C247.535 16.5997 247.75 16.3884 247.921 16.1393C248.091 15.8826 248.217 15.5958 248.292 15.2712C248.358 14.9466 248.395 14.6145 248.395 14.2748ZM251.354 7.44336H253.03V9.05874H251.354V7.44336ZM251.354 10.3948H253.03V18.1396H251.354V10.3948ZM254.528 7.44336H256.204V18.1396H254.528V7.44336ZM261.342 18.351C260.734 18.351 260.193 18.2453 259.718 18.0415C259.244 17.8377 258.843 17.5508 258.51 17.1961C258.184 16.8337 257.931 16.4035 257.761 15.9053C257.59 15.4071 257.501 14.856 257.501 14.2597C257.501 13.6709 257.59 13.1274 257.761 12.6292C257.931 12.131 258.184 11.7007 258.51 11.3384C258.836 10.9761 259.244 10.6968 259.718 10.493C260.193 10.2892 260.734 10.1835 261.342 10.1835C261.95 10.1835 262.492 10.2892 262.966 10.493C263.441 10.6968 263.841 10.9836 264.175 11.3384C264.501 11.7007 264.753 12.131 264.924 12.6292C265.095 13.1274 265.184 13.6709 265.184 14.2597C265.184 14.856 265.095 15.4071 264.924 15.9053C264.753 16.4035 264.501 16.8337 264.175 17.1961C263.849 17.5584 263.441 17.8377 262.966 18.0415C262.492 18.2453 261.95 18.351 261.342 18.351ZM261.342 16.9998C261.713 16.9998 262.039 16.9168 262.314 16.7582C262.588 16.5997 262.811 16.3884 262.989 16.1317C263.167 15.8751 263.293 15.5807 263.382 15.2561C263.463 14.9315 263.508 14.5994 263.508 14.2597C263.508 13.9275 263.463 13.603 263.382 13.2708C263.3 12.9387 263.167 12.6518 262.989 12.3952C262.811 12.1385 262.588 11.9347 262.314 11.7762C262.039 11.6177 261.713 11.5347 261.342 11.5347C260.972 11.5347 260.645 11.6177 260.371 11.7762C260.097 11.9347 259.874 12.1461 259.696 12.3952C259.518 12.6518 259.392 12.9387 259.303 13.2708C259.222 13.603 259.177 13.9275 259.177 14.2597C259.177 14.5994 259.222 14.9315 259.303 15.2561C259.385 15.5807 259.518 15.8751 259.696 16.1317C259.874 16.3884 260.097 16.5997 260.371 16.7582C260.645 16.9243 260.972 16.9998 261.342 16.9998ZM265.673 10.3948H266.941V8.06989H268.617V10.3948H270.13V11.6705H268.617V15.8071C268.617 15.9883 268.624 16.1393 268.639 16.2751C268.654 16.4035 268.691 16.5167 268.743 16.6073C268.795 16.6979 268.876 16.7658 268.988 16.8111C269.099 16.8564 269.24 16.879 269.432 16.879C269.551 16.879 269.67 16.879 269.788 16.8715C269.907 16.8639 270.026 16.8488 270.144 16.8186V18.1396C269.959 18.1623 269.774 18.1774 269.603 18.2C269.425 18.2227 269.247 18.2302 269.062 18.2302C268.617 18.2302 268.261 18.1849 267.994 18.1019C267.727 18.0188 267.512 17.8905 267.364 17.7245C267.208 17.5584 267.111 17.3546 267.052 17.1055C267 16.8564 266.963 16.5695 266.956 16.2525V11.6856H265.688V10.3948H265.673Z" fill="black"/>
<path d="M206.247 7.44284H198.565L196.192 0L193.812 7.44284L186.13 7.4353L192.351 12.0399L189.971 19.4752L196.192 14.8781L202.406 19.4752L200.034 12.0399L206.247 7.44284Z" fill="#00B67A"/>
<path d="M200.567 13.7224L200.034 12.0391L196.192 14.8773L200.567 13.7224Z" fill="#005128"/>
</g>
<defs>
<clipPath id="clip0_699_4345">
<rect width="100" height="18.8235" fill="black" transform="translate(75.1299 1.08824)"/>
</clipPath>
<clipPath id="clip1_699_4345">
<rect width="84" height="21" fill="black" transform="translate(186.13)"/>
</clipPath>
</defs>
</svg>
