<svg version="1.1" id="Layer_1" xmlns:x="ns_extend;" xmlns:i="ns_ai;" xmlns:graph="ns_graphs;" xmlns="http://www.w3.org/2000/svg" xmlns:xlink="http://www.w3.org/1999/xlink" x="0px" y="0px" viewBox="0 0 341.2 65" style="enable-background:new 0 0 341.2 65;" xml:space="preserve">
 <style type="text/css">
  .st0{fill-rule:evenodd;clip-rule:evenodd;fill:#EE0020;}
 </style>
 <metadata>
  <sfw xmlns="ns_sfw;">
   <slices>
   </slices>
   <sliceSourceBounds bottomLeftOrigin="true" height="65" width="341.2" x="-173.2" y="0">
   </sliceSourceBounds>
  </sfw>
 </metadata>
 <g>
  <path class="st0" d="M55.1,0H47v7h-5.4v7.4H47l0,15.1c0,2.2,0.1,3.9,0.5,5.4c0.4,1.6,1.2,2.9,2.6,4.4c2.8,3.1,6.5,3.5,9.6,3.5h3.8
		v-7.4h-3.8c-1.2,0-2-0.2-2.6-0.6c-0.6-0.3-1-0.8-1.3-1.4c-0.6-1.2-0.7-2.8-0.7-4.4V14.4h5.7h3.9h1.5l0,15.1c0,2.2,0.1,3.9,0.5,5.4
		c0.4,1.6,1.2,2.9,2.6,4.4c2.8,3.1,6.5,3.5,9.6,3.5h3.8v-7.4h-3.8c-1.2,0-2-0.2-2.6-0.6c-0.6-0.3-1-0.8-1.3-1.4
		c-0.6-1.2-0.7-2.8-0.7-4.4V14.4h9.6V7h-9.6V0h-8.1v7h-1.5h-3.9h-5.7V0z M322.8,5.9L322.8,5.9c-2.9,0-5.7,0.7-8.3,2
		c-1.1,0.5-2,1.1-2.9,1.8v-3h-8.2v48.6h8.2V40c0.9,0.7,1.9,1.3,2.9,1.8c2.6,1.3,5.4,1.9,8.3,1.9h0c9.1,0,18.4-6.9,18.4-18.9v-0.1
		C341.2,12.9,331.9,5.9,322.8,5.9z M311.3,24.8c0-7.7,5.5-11.6,10.7-11.6c5.2,0,10.8,3.8,10.8,11.6v0.1c0,3.9-1.4,6.8-3.4,8.7
		c-2,1.9-4.7,2.9-7.4,2.9C316.8,36.5,311.3,32.6,311.3,24.8L311.3,24.8z M206,10.1c2.8-2.3,6.7-3.8,10.7-3.8h2.3v8h-3.1l0,0
		c-2.6-0.1-5.1,0.8-7.1,2.5c-1.7,1.6-2.8,4-2.8,7.3V43h-8.1v-1.7l0,0V6.7h8.1V10.1z M273,6.7h-8.1v21.5c0,4.7,1.4,8.7,4.1,11.4
		c2.7,2.8,6.5,4.2,10.8,4.2c3.9,0,7.4-1.1,9.9-3.1V43h8.2V6.7h-8.1v20.2c0,3.2-0.9,5.6-2.3,7.1c-0.8,0.8-1.7,1.4-2.7,1.9
		c-1,0.4-2.1,0.6-3.3,0.6l0,0l0,0c-1.1,0-2.2-0.1-3.2-0.5c-1-0.4-2-1-2.7-1.7c-1.4-1.4-2.4-3.7-2.4-7V6.7z M0,24.6
		C0,13.4,9,5.7,19.6,5.7c10.6,0,19.6,7.7,19.6,18.9v0.1c0,11.2-9,18.9-19.6,18.9C9,43.6,0,35.9,0,24.6L0,24.6z M19.6,13
		c-6.1,0-11.2,4.5-11.2,11.6v0.1c0,7.1,5.1,11.7,11.2,11.7c6.1,0,11.2-4.6,11.2-11.7v-0.1C30.8,17.5,25.7,13,19.6,13z M105.3,5.7
		c-10.6,0-19.6,7.7-19.6,18.9v0.1c0,11.3,9,18.9,19.6,18.9c10.6,0,19.6-7.7,19.6-18.9v-0.1C125,13.4,116,5.7,105.3,5.7z M94.1,24.6
		c0-7.1,5.1-11.6,11.2-11.6c6.1,0,11.2,4.5,11.2,11.6v0.1c0,7.1-5.2,11.7-11.2,11.7C99.3,36.3,94.1,31.7,94.1,24.6L94.1,24.6z
		 M220.7,24.8c0-11.2,9-18.9,19.6-18.9c10.6,0,19.6,7.7,19.6,18.9v0.1c0,11.2-9,18.9-19.6,18.9C229.7,43.8,220.7,36.1,220.7,24.8
		L220.7,24.8z M240.3,13.2c-6.1,0-11.2,4.5-11.2,11.6v0.1c0,7.1,5.1,11.7,11.2,11.7c6.1,0,11.2-4.6,11.2-11.7v-0.1
		C251.6,17.7,246.4,13.2,240.3,13.2z M188,2.7c-2.2,0-3.9,1.7-3.9,3.9c0,2.2,1.7,3.9,3.9,3.9c2.2,0,3.9-1.7,3.9-3.9
		C191.9,4.4,190.2,2.7,188,2.7z M172.2,5.9c-10.6,0-19.6,7.7-19.6,18.9v0.1c0,11.3,9,18.9,19.6,18.9c10.6,0,19.6-7.7,19.6-18.9v-0.1
		C191.8,13.6,182.8,5.9,172.2,5.9z M161,24.8c0-7.1,5.1-11.6,11.2-11.6c6.1,0,11.2,4.5,11.2,11.6v0.1c0,7.1-5.1,11.7-11.2,11.7
		C166.1,36.5,161,32,161,24.8L161,24.8z M183.7,46.3c-0.1,7-5.2,11.4-11.2,11.4c-6,0-11.2-4.5-11.2-11.4l0-1.6h-1.6h-6.9v1.6
		c0.1,11.1,9.1,18.7,19.7,18.7c10.6,0,19.5-7.6,19.6-18.7v-1.5h-8.4C183.7,44.7,183.7,45.8,183.7,46.3z">
  </path>
 </g>
</svg>